<svg width="98" height="18" viewBox="0 0 98 18" fill="none" xmlns="http://www.w3.org/2000/svg">
<path d="M23.5432 13.7717L22.2531 4.83501C21.9216 2.53668 19.9213 0.833344 17.5658 0.833344H6.84199C4.48654 0.833344 2.48618 2.53668 2.15476 4.83501L0.864586 13.7717C0.604184 15.5683 2.01272 17.1667 3.84737 17.1667C4.65225 17.1667 5.40978 16.8517 5.97793 16.2917L8.65297 13.6667H15.7548L18.418 16.2917C18.9862 16.8517 19.7556 17.1667 20.5486 17.1667C22.3951 17.1667 23.8036 15.5683 23.5432 13.7717ZM11.0203 7.83334H8.65297V10.1667H7.46933V7.83334H5.10204V6.66668H7.46933V4.33334H8.65297V6.66668H11.0203V7.83334ZM15.7548 6.66668C15.1038 6.66668 14.5712 6.14168 14.5712 5.50001C14.5712 4.85834 15.1038 4.33334 15.7548 4.33334C16.4058 4.33334 16.9385 4.85834 16.9385 5.50001C16.9385 6.14168 16.4058 6.66668 15.7548 6.66668ZM18.1221 10.1667C17.4711 10.1667 16.9385 9.64168 16.9385 9.00001C16.9385 8.35834 17.4711 7.83334 18.1221 7.83334C18.7731 7.83334 19.3058 8.35834 19.3058 9.00001C19.3058 9.64168 18.7731 10.1667 18.1221 10.1667Z" fill="#2A7AE4"/>
<path d="M70.7733 12.92C69.9684 13.7134 69.031 14.11 67.961 14.11C67.2981 14.11 66.6732 13.9794 66.0861 13.718C65.5085 13.4567 65.0019 13.0974 64.5663 12.64C64.1402 12.1827 63.7993 11.646 63.5436 11.03C63.2974 10.4047 63.1743 9.73271 63.1743 9.01404C63.1743 8.33271 63.2974 7.69337 63.5436 7.09604C63.7993 6.48937 64.1449 5.96204 64.5805 5.51404C65.0255 5.0567 65.5463 4.69737 66.1429 4.43604C66.7395 4.16537 67.3881 4.03004 68.0888 4.03004C69.0357 4.03004 69.8453 4.22604 70.5177 4.61804C71.1994 5.01004 71.7108 5.53737 72.0517 6.20004L70.5887 7.26404C70.333 6.76937 69.9732 6.39137 69.5092 6.13004C69.0547 5.86871 68.5575 5.73804 68.0178 5.73804C67.5917 5.73804 67.1987 5.8267 66.8389 6.00404C66.4885 6.18137 66.1855 6.42404 65.9298 6.73204C65.6836 7.04004 65.4895 7.39471 65.3475 7.79604C65.2149 8.19737 65.1486 8.62204 65.1486 9.07004C65.1486 9.53671 65.2244 9.97537 65.3759 10.386C65.5274 10.7874 65.7357 11.1374 66.0009 11.436C66.266 11.7347 66.5785 11.9727 66.9383 12.15C67.3076 12.318 67.7053 12.402 68.1314 12.402C69.1067 12.402 69.9874 11.9494 70.7733 11.044V10.344H68.7422V8.93004H72.3925V14.04H70.7733V12.92Z" fill="#464646"/>
<path d="M77.3299 14.18C76.7333 14.18 76.1936 14.082 75.7107 13.886C75.2277 13.6807 74.8158 13.4054 74.4749 13.06C74.1341 12.7147 73.8689 12.3134 73.6795 11.856C73.4996 11.3987 73.4097 10.918 73.4097 10.414C73.4097 9.89137 73.4996 9.40137 73.6795 8.94404C73.8595 8.47737 74.1199 8.07137 74.4607 7.72604C74.8016 7.37137 75.2135 7.09137 75.6965 6.88604C76.1889 6.68071 76.7381 6.57804 77.3441 6.57804C77.9501 6.57804 78.4899 6.68071 78.9633 6.88604C79.4463 7.09137 79.8534 7.36671 80.1849 7.71204C80.5257 8.05737 80.7814 8.45871 80.9519 8.91604C81.1318 9.37337 81.2217 9.84937 81.2217 10.344C81.2217 10.4654 81.217 10.582 81.2075 10.694C81.2075 10.806 81.1981 10.8994 81.1791 10.974H75.4266C75.455 11.2634 75.526 11.52 75.6397 11.744C75.7533 11.968 75.9001 12.1594 76.08 12.318C76.2599 12.4767 76.4635 12.598 76.6907 12.682C76.918 12.766 77.1547 12.808 77.4009 12.808C77.7797 12.808 78.1348 12.7194 78.4662 12.542C78.8071 12.3554 79.0391 12.1127 79.1622 11.814L80.7956 12.262C80.521 12.822 80.0807 13.284 79.4747 13.648C78.8781 14.0027 78.1632 14.18 77.3299 14.18ZM79.2616 9.75604C79.2143 9.20537 79.0059 8.76671 78.6366 8.44004C78.2768 8.10404 77.8365 7.93604 77.3157 7.93604C77.06 7.93604 76.8186 7.98271 76.5913 8.07604C76.3735 8.16004 76.1794 8.28137 76.009 8.44004C75.8385 8.59871 75.6965 8.79004 75.5828 9.01404C75.4787 9.23804 75.4171 9.48537 75.3982 9.75604H79.2616Z" fill="#464646"/>
<path d="M85.8327 14.18C85.2362 14.18 84.6964 14.082 84.2135 13.886C83.7306 13.6807 83.3187 13.4054 82.9778 13.06C82.6369 12.7147 82.3718 12.3134 82.1824 11.856C82.0025 11.3987 81.9125 10.918 81.9125 10.414C81.9125 9.89137 82.0025 9.40137 82.1824 8.94404C82.3623 8.47737 82.6227 8.07137 82.9636 7.72604C83.3045 7.37137 83.7164 7.09137 84.1993 6.88604C84.6917 6.68071 85.2409 6.57804 85.8469 6.57804C86.453 6.57804 86.9927 6.68071 87.4662 6.88604C87.9491 7.09137 88.3563 7.36671 88.6877 7.71204C89.0286 8.05737 89.2842 8.45871 89.4547 8.91604C89.6346 9.37337 89.7246 9.84937 89.7246 10.344C89.7246 10.4654 89.7198 10.582 89.7104 10.694C89.7104 10.806 89.7009 10.8994 89.6819 10.974H83.9294C83.9578 11.2634 84.0289 11.52 84.1425 11.744C84.2561 11.968 84.4029 12.1594 84.5828 12.318C84.7627 12.4767 84.9663 12.598 85.1936 12.682C85.4208 12.766 85.6576 12.808 85.9038 12.808C86.2825 12.808 86.6376 12.7194 86.969 12.542C87.3099 12.3554 87.5419 12.1127 87.665 11.814L89.2984 12.262C89.0238 12.822 88.5835 13.284 87.9775 13.648C87.3809 14.0027 86.666 14.18 85.8327 14.18ZM87.7644 9.75604C87.7171 9.20537 87.5088 8.76671 87.1395 8.44004C86.7796 8.10404 86.3393 7.93604 85.8185 7.93604C85.5629 7.93604 85.3214 7.98271 85.0941 8.07604C84.8763 8.16004 84.6822 8.28137 84.5118 8.44004C84.3413 8.59871 84.1993 8.79004 84.0857 9.01404C83.9815 9.23804 83.92 9.48537 83.901 9.75604H87.7644Z" fill="#464646"/>
<path d="M95.969 14.04L93.81 10.862L92.7874 11.856V14.04H90.8841V3.82004H92.7874V10.022L95.7701 6.71804H97.8013L95.0315 9.82604L98.0001 14.04H95.969Z" fill="#464646"/>
<path d="M30.2569 4.10004H31.9898L35.8248 14.04H33.8079L32.8704 11.562H29.3479L28.4246 14.04H26.4077L30.2569 4.10004ZM32.5153 10.204L31.1234 6.29804L29.6746 10.204H32.5153Z" fill="#2A7AE4"/>
<path d="M36.7321 3.82004H38.6354V11.688C38.6354 11.9587 38.7016 12.1687 38.8342 12.318C38.9668 12.4674 39.1562 12.542 39.4024 12.542C39.516 12.542 39.6391 12.5234 39.7717 12.486C39.9137 12.4487 40.0463 12.402 40.1694 12.346L40.425 13.774C40.1694 13.8954 39.8711 13.9887 39.5302 14.054C39.1893 14.1194 38.8816 14.152 38.607 14.152C38.0104 14.152 37.5464 13.998 37.215 13.69C36.893 13.3727 36.7321 12.9247 36.7321 12.346V3.82004Z" fill="#2A7AE4"/>
<path d="M43.5269 14.18C42.7599 14.18 42.1775 13.9374 41.7798 13.452C41.3821 12.9667 41.1833 12.248 41.1833 11.296V6.70404H43.0866V10.89C43.0866 12.0194 43.4985 12.584 44.3223 12.584C44.6916 12.584 45.0467 12.4767 45.3876 12.262C45.7379 12.038 46.022 11.702 46.2398 11.254V6.70404H48.1431V11.884C48.1431 12.08 48.1762 12.22 48.2425 12.304C48.3183 12.388 48.4367 12.4347 48.5976 12.444V14.04C48.4082 14.0774 48.2473 14.1007 48.1147 14.11C47.9916 14.1194 47.878 14.124 47.7738 14.124C47.4329 14.124 47.1536 14.0494 46.9358 13.9C46.7275 13.7414 46.6044 13.5267 46.5665 13.256L46.5239 12.668C46.1925 13.172 45.7663 13.55 45.2455 13.802C44.7247 14.054 44.1519 14.18 43.5269 14.18Z" fill="#2A7AE4"/>
<path d="M54.4661 8.32804C53.8885 8.33737 53.3724 8.44937 52.9179 8.66404C52.4634 8.86937 52.1367 9.18204 51.9378 9.60204V14.04H50.0345V6.70404H51.7816V8.27204C51.9142 8.02004 52.0704 7.79604 52.2503 7.60004C52.4302 7.39471 52.6244 7.21737 52.8327 7.06804C53.041 6.91871 53.2493 6.80671 53.4576 6.73204C53.6754 6.64804 53.8837 6.60604 54.0826 6.60604C54.1868 6.60604 54.2625 6.60604 54.3099 6.60604C54.3667 6.60604 54.4188 6.61071 54.4661 6.62004V8.32804Z" fill="#2A7AE4"/>
<path d="M57.4614 14.18C57.1016 14.18 56.7654 14.124 56.453 14.012C56.1405 13.8907 55.8706 13.7274 55.6433 13.522C55.4161 13.3074 55.2362 13.06 55.1036 12.78C54.9805 12.5 54.919 12.192 54.919 11.856C54.919 11.5107 54.9947 11.1934 55.1462 10.904C55.3072 10.6054 55.525 10.3534 55.7996 10.148C56.0837 9.94271 56.4198 9.78404 56.8081 9.67204C57.1963 9.55071 57.6224 9.49004 58.0864 9.49004C58.4178 9.49004 58.7398 9.51804 59.0522 9.57404C59.3742 9.63004 59.6583 9.70937 59.9045 9.81204V9.39204C59.9045 8.90671 59.7624 8.53337 59.4784 8.27204C59.2038 8.01071 58.7918 7.88004 58.2426 7.88004C57.8449 7.88004 57.4567 7.95004 57.0779 8.09004C56.6992 8.23004 56.3109 8.43537 55.9132 8.70604L55.3309 7.51604C56.2873 6.89071 57.3194 6.57804 58.4273 6.57804C59.4973 6.57804 60.3258 6.83937 60.9129 7.36204C61.5095 7.87537 61.8078 8.62204 61.8078 9.60204V11.884C61.8078 12.08 61.8409 12.22 61.9072 12.304C61.983 12.388 62.1013 12.4347 62.2623 12.444V14.04C61.9403 14.1054 61.661 14.138 61.4243 14.138C61.0644 14.138 60.7851 14.0587 60.5863 13.9C60.3969 13.7414 60.2785 13.5314 60.2312 13.27L60.1885 12.864C59.8571 13.2934 59.4547 13.62 58.9812 13.844C58.5078 14.068 58.0012 14.18 57.4614 14.18ZM58.0012 12.808C58.3231 12.808 58.6261 12.752 58.9102 12.64C59.2038 12.528 59.431 12.3787 59.592 12.192C59.8003 12.0334 59.9045 11.856 59.9045 11.66V10.82C59.6772 10.736 59.431 10.6707 59.1659 10.624C58.9007 10.568 58.6451 10.54 58.3989 10.54C57.9065 10.54 57.504 10.652 57.1916 10.876C56.8791 11.0907 56.7228 11.366 56.7228 11.702C56.7228 12.0194 56.8459 12.2854 57.0921 12.5C57.3383 12.7054 57.6413 12.808 58.0012 12.808Z" fill="#2A7AE4"/>
</svg>
